<svg fill="none" height="41" width="60" xmlns="http://www.w3.org/2000/svg"><rect fill="#1f72cd" height="40" rx="3" width="60" y=".111"/><path clip-rule="evenodd" d="M10.614 14.111L5 26.534h6.72l.834-1.98h1.904l.833 1.98h7.397v-1.512l.66 1.512h3.826l.66-1.544v1.544h15.383l1.871-1.93 1.752 1.93 7.901.016-5.631-6.193 5.631-6.246h-7.779l-1.82 1.894-1.697-1.894H26.709l-1.438 3.207-1.47-3.207h-6.707v1.46l-.746-1.46zm22.973 1.764h8.834l2.703 2.919 2.789-2.919h2.702l-4.106 4.48 4.106 4.43H47.79l-2.702-2.953-2.803 2.952h-8.698zm2.182 3.473V17.72h5.512l2.405 2.603-2.511 2.617h-5.406v-1.777h4.82v-1.814h-4.82zm-23.855-3.473h3.276l3.723 8.424v-8.424h3.59l2.875 6.04 2.65-6.04H31.6v8.915h-2.172l-.018-6.986-3.168 6.986h-1.943l-3.185-6.986v6.986h-4.47l-.847-1.999h-4.578l-.846 1.997H7.977zM12 20.944l1.509-3.56 1.506 3.56z" fill="#fff" fill-rule="evenodd"/></svg>