<svg fill="none" height="27" width="38" xmlns="http://www.w3.org/2000/svg"><g clip-rule="evenodd" fill-rule="evenodd"><g fill="#1a1919"><path d="M.765 16.863c0-.722-.377-.675-.737-.682v-.209c.312.015.633.015.946.015.336 0 .793-.015 1.387-.015 2.076 0 3.207 1.388 3.207 2.81 0 .795-.465 2.793-3.304 2.793-.408 0-.785-.016-1.162-.016-.36 0-.714.007-1.074.016v-.21c.48-.048.714-.063.737-.61zm.786 3.764c0 .618.44.69.834.69 1.732 0 2.3-1.308 2.3-2.504 0-1.5-.962-2.584-2.509-2.584-.33 0-.48.024-.625.032zm4.298.739H6c.224 0 .384 0 .384-.266v-2.175c0-.352-.12-.401-.417-.561v-.128c.377-.114.826-.265.858-.29a.283.283 0 0 1 .145-.04c.04 0 .056.048.056.113V21.1c0 .266.176.266.401.266h.136v.209c-.273 0-.554-.016-.842-.016s-.577.007-.873.016v-.21zm.858-4.696a.411.411 0 0 1-.393-.4.41.41 0 0 1 .393-.387c.208 0 .393.17.393.386a.4.4 0 0 1-.393.401zm1.619 2.304c0-.297-.089-.377-.465-.53v-.152c.344-.112.673-.217 1.058-.386.024 0 .048.016.048.08v.522c.457-.328.85-.602 1.388-.602.68 0 .921.498.921 1.124v2.07c0 .266.177.266.401.266h.145v.209c-.282 0-.562-.016-.85-.016-.289 0-.578.007-.867.016v-.21h.145c.225 0 .384 0 .384-.265v-2.078c0-.458-.279-.682-.736-.682-.257 0-.666.208-.931.386V21.1c0 .266.177.266.401.266h.144v.209c-.28 0-.56-.016-.85-.016-.288 0-.577.007-.865.016v-.21h.145c.224 0 .384 0 .384-.265zm4.105.386c-.016.072-.016.192 0 .465.047.762.537 1.388 1.178 1.388.442 0 .787-.24 1.083-.537l.112.112c-.37.49-.826.907-1.483.907-1.275 0-1.531-1.236-1.531-1.75 0-1.573 1.058-2.04 1.618-2.04.65 0 1.348.41 1.356 1.261 0 .05 0 .097-.008.145l-.072.049H12.43zm1.42-.258c.2 0 .223-.104.223-.2 0-.41-.248-.739-.697-.739-.489 0-.826.36-.922.94h1.396zm1.097 2.264h.217c.224 0 .384 0 .384-.266v-2.255c0-.248-.296-.297-.417-.361v-.12c.585-.25.906-.458.98-.458.047 0 .07.024.07.105v.722h.017c.2-.313.538-.827 1.026-.827.2 0 .457.136.457.425 0 .217-.152.41-.376.41-.25 0-.25-.193-.53-.193-.136 0-.585.185-.585.667V21.1c0 .266.16.266.384.266h.449v.209c-.441-.009-.777-.016-1.122-.016-.328 0-.665.007-.954.016v-.21zm3.087-.907c.104.53.424.98 1.01.98.473 0 .649-.29.649-.57 0-.948-1.747-.643-1.747-1.935 0-.45.36-1.028 1.242-1.028.257 0 .601.073.914.234l.056.818h-.184c-.08-.506-.36-.795-.874-.795-.321 0-.625.185-.625.53 0 .94 1.86.65 1.86 1.91 0 .53-.425 1.092-1.38 1.092a2.1 2.1 0 0 1-.977-.273l-.089-.923zm9.54-3.035h-.2c-.153-.938-.819-1.316-1.716-1.316-.923 0-2.261.618-2.261 2.544 0 1.622 1.155 2.786 2.389 2.786.793 0 1.452-.546 1.612-1.389l.184.048-.184 1.172c-.337.21-1.243.426-1.773.426-1.875 0-3.062-1.212-3.062-3.018 0-1.646 1.468-2.826 3.039-2.826.65 0 1.274.21 1.892.426zm.29 3.942h.151c.225 0 .385 0 .385-.266v-4.47c0-.522-.12-.537-.425-.626v-.129c.32-.104.658-.248.826-.345.088-.047.152-.088.176-.088.049 0 .065.048.065.113V21.1c0 .266.176.266.4.266h.136v.209c-.271 0-.552-.016-.84-.016-.29 0-.578.007-.875.016v-.21zm5.147-.233c0 .145.087.152.223.152.097 0 .217-.007.322-.007v.169c-.345.031-1.003.2-1.156.248l-.04-.024v-.65c-.48.393-.85.674-1.42.674-.432 0-.88-.281-.88-.955v-2.055c0-.21-.033-.41-.48-.45v-.152c.288-.008.928-.056 1.032-.056.09 0 .09.056.09.233v2.07c0 .241 0 .931.697.931.272 0 .633-.208.97-.489v-2.16c0-.16-.385-.248-.673-.328v-.144c.72-.05 1.17-.113 1.25-.113.065 0 .065.056.065.144zm1.595-2.65c.32-.271.754-.577 1.194-.577.93 0 1.492.812 1.492 1.686 0 1.051-.77 2.103-1.917 2.103-.593 0-.905-.193-1.114-.281l-.24.184-.168-.087c.071-.474.112-.94.112-1.43v-3.45c0-.523-.12-.538-.425-.627v-.129c.32-.104.657-.248.825-.345.089-.047.153-.088.177-.088.048 0 .064.049.064.113v2.929zm0 2.184c0 .305.289.82.826.82.857 0 1.218-.844 1.218-1.558 0-.867-.657-1.59-1.282-1.59-.298 0-.546.194-.762.379v1.95zm-30.26 4.845l.008-.008v-1.638c0-.358-.249-.41-.38-.41H3.88v-.132c.206 0 .406.018.61.018.18 0 .36-.018.538-.018v.131h-.065c-.184 0-.39.035-.39.555v1.987c0 .153.005.306.027.442h-.166L2.187 23.93v1.8c0 .38.073.51.41.51h.074v.132c-.188 0-.375-.017-.563-.017-.196 0-.397.017-.593.017v-.131h.06c.302 0 .393-.206.393-.554v-1.84a.392.392 0 0 0-.396-.393h-.057v-.13c.165 0 .336.017.501.017.131 0 .258-.018.389-.018l1.941 2.188z"/><path d="M4.599 26.457l-.18-.006-2.214-2.47v1.75c.006.38.063.488.392.492h.093v.169h-.02c-.188 0-.376-.018-.562-.018-.195 0-.396.018-.593.018h-.02v-.17h.081c.288 0 .37-.186.374-.534v-1.84a.374.374 0 0 0-.378-.374h-.076v-.169h.019c.167 0 .337.017.5.017.131 0 .257-.017.404-.01l1.917 2.16v-1.606c-.002-.347-.233-.389-.36-.392H3.86v-.169h.02c.206 0 .406.017.61.017.178 0 .357-.017.537-.017h.019v.17h-.084c-.18.004-.365.02-.37.535v1.987c0 .153.005.306.026.438l.003.022H4.6zm-.166-.038h.145a2.943 2.943 0 0 1-.023-.422V24.01c0-.524.22-.574.407-.574h.046v-.093c-.172.001-.344.017-.518.017-.2 0-.394-.016-.59-.017l-.001.093h.077c.134 0 .398.06.398.43l-.006 1.651-.008.009-.015.014-1.94-2.197c-.13 0-.256.017-.389.017-.16 0-.324-.016-.482-.017v.093h.038c.205 0 .415.157.415.413v1.839c0 .35-.097.573-.41.574l-.043-.001v.093c.19-.001.384-.017.574-.017.182 0 .364.016.544.017v-.092h-.055c-.344-.001-.429-.151-.429-.531v-1.849zm-.086-.907l.013-.012zm-.01-.008v-.002l-.004-.003.003.005zm1.343-1.961c-.327 0-.34.079-.405.397h-.131c.017-.122.038-.244.052-.371.017-.123.026-.245.026-.371h.105c.035.131.144.126.262.126h2.25c.119 0 .227-.004.236-.135l.105.018c-.017.117-.035.235-.048.354-.008.117-.008.235-.008.353l-.131.048c-.01-.16-.031-.42-.323-.42h-.716v2.324c0 .337.153.376.362.376H7.4v.131c-.17 0-.475-.017-.71-.017-.263 0-.568.017-.738.017v-.131h.083c.24 0 .362-.022.362-.367v-2.332z"/><path d="M7.4 26.392c-.172 0-.477-.018-.711-.018-.262 0-.567.018-.738.018h-.019v-.17h.102c.24-.005.337-.008.343-.347v-2.314H5.68v-.038h.733v2.352c0 .351-.14.387-.38.387H5.97v.092c.172-.001.466-.017.719-.017.227 0 .518.016.691.017v-.092h-.064c-.21 0-.38-.053-.38-.396v-2.343h.734c.293.001.331.25.34.413l.095-.035c0-.114 0-.228.008-.343.013-.113.029-.224.045-.336l-.066-.01c-.02.126-.143.133-.253.131H5.567c-.103 0-.215-.005-.254-.126h-.072c0 .12-.009.238-.025.354-.014.12-.033.235-.05.351h.094c.057-.305.094-.403.42-.399v.038c-.323.007-.316.06-.387.384l-.003.014h-.168l.002-.022c.018-.122.04-.245.053-.372.018-.12.026-.242.026-.367v-.02h.139l.003.014c.03.11.11.111.222.113h2.272c.122-.002.21-.003.218-.118l.001-.02.02.004.124.02-.004.019c-.017.117-.034.234-.047.351-.008.117-.008.235-.008.353v.013l-.013.005-.154.057-.001-.026c-.012-.164-.03-.402-.305-.402h-.696v2.305c.004.33.134.353.342.357h.103v.169zm.92-.15h.06c.157 0 .324-.022.324-.25v-2.287c0-.228-.167-.25-.323-.25h-.062v-.13c.266 0 .72.017 1.086.017.367 0 .82-.018 1.117-.018-.008.188-.004.477.01.669l-.132.035c-.021-.284-.074-.511-.532-.511h-.605v1.144h.518c.261 0 .318-.148.344-.385h.131a10.036 10.036 0 0 0 0 1.01l-.13.025c-.027-.261-.04-.431-.341-.431h-.522v1.017c0 .284.252.284.53.284.525 0 .756-.035.887-.533l.121.03a9.89 9.89 0 0 0-.148.695c-.28 0-.78-.017-1.173-.017s-.912.017-1.16.017z"/><path d="M10.653 26.392c-.28 0-.781-.018-1.173-.018-.393 0-.911.018-1.16.018H8.3v-.17h.08c.158-.002.302-.016.304-.23v-2.287c-.002-.214-.146-.228-.304-.23H8.3v-.17h.019c.266 0 .72.017 1.085.017.367 0 .82-.017 1.117-.017h.02l-.001.02a6.887 6.887 0 0 0 .009.666v.016l-.014.004-.154.04v-.022c-.026-.283-.064-.49-.513-.494H9.28v1.106h.5c.252-.002.296-.13.326-.366l.001-.018h.168v.02a10.37 10.37 0 0 0 0 1.008v.015l-.016.004-.152.03v-.02c-.031-.267-.033-.413-.323-.416H9.28v.998c0 .266.229.265.513.266.525-.003.736-.029.867-.519l.005-.017.018.002.14.037-.004.018a9.974 9.974 0 0 0-.148.693l-.004.016zm-.016-.038c.038-.22.088-.441.141-.661l-.085-.022c-.131.489-.384.532-.899.529-.275 0-.55 0-.551-.303V24.86h.542c.305-.003.336.181.357.43l.095-.02a9.178 9.178 0 0 1 0-.975h-.095c-.024.228-.095.387-.361.385h-.538v-1.183h.625c.454-.003.53.232.549.507l.094-.026a7.355 7.355 0 0 1-.008-.635c-.297.001-.739.017-1.098.017-.358 0-.8-.016-1.066-.017v.093h.042c.155 0 .34.027.342.269v2.288c-.001.241-.187.268-.342.269h-.042v.092c.254 0 .758-.017 1.141-.017.385 0 .876.016 1.157.017zm.753-2.567c0-.319-.174-.332-.31-.332h-.079v-.13c.14 0 .41.017.677.017.261 0 .47-.018.702-.018.549 0 1.039.149 1.039.77 0 .392-.262.632-.607.768l.746 1.118c.122.184.209.236.423.262v.131c-.144 0-.284-.017-.427-.017-.135 0-.276.017-.41.017-.336-.44-.624-.912-.908-1.416h-.287v.936c0 .336.156.349.356.349h.08v.131c-.25 0-.502-.017-.75-.017-.21 0-.415.017-.633.017v-.131h.078c.162 0 .31-.074.31-.236v-2.22zm.558 1.013h.214c.436 0 .671-.166.671-.681 0-.389-.248-.637-.637-.637-.13 0-.187.013-.248.017z"/><path d="M13.981 26.392c-.146 0-.285-.018-.428-.018-.133 0-.273.018-.425.01-.335-.44-.621-.908-.903-1.407h-.258v.915c.005.329.137.326.338.33h.098v.17h-.02c-.248 0-.502-.018-.75-.018-.207 0-.412.018-.632.018h-.019v-.17h.098c.157 0 .29-.069.29-.216v-2.22c-.003-.309-.154-.307-.29-.312h-.098v-.169h.02c.14 0 .41.017.676.017.26 0 .47-.017.702-.017.55.001 1.056.153 1.057.788 0 .394-.26.64-.596.777l.732 1.1c.122.18.198.226.41.253l.016.002v.167zm-2.033-1.453h.299l.005.01c.284.501.57.973.892 1.405.133 0 .273-.017.409-.017.139 0 .274.015.41.017v-.096c-.205-.025-.301-.087-.42-.268l-.76-1.137.022-.008c.341-.135.594-.368.595-.752 0-.606-.472-.747-1.02-.75-.23 0-.44.018-.702.018-.256 0-.515-.017-.658-.018v.093h.06c.136 0 .328.023.328.35v2.22c0 .176-.164.255-.328.256h-.06v.092c.21 0 .409-.017.614-.017.243 0 .49.016.731.017v-.092h-.06c-.198 0-.376-.025-.376-.37v-.953h.02zm0-.12h-.019v-1.337l.017-.002c.06-.005.118-.017.25-.017.398 0 .656.259.657.657-.002.521-.251.699-.691.699zm.214-.037c.431-.005.65-.155.653-.662-.002-.382-.239-.618-.619-.62-.117 0-.173.01-.229.016v1.266zm4.781.73l.008-.008v-1.638c0-.358-.248-.41-.38-.41h-.095v-.132c.205 0 .405.018.61.018.18 0 .358-.018.538-.018v.131h-.066c-.183 0-.388.035-.388.555v1.987c0 .153.004.306.026.442h-.165l-2.247-2.508v1.8c0 .38.074.51.41.51h.074v.132c-.187 0-.375-.017-.563-.017-.197 0-.397.017-.593.017v-.131h.06c.302 0 .394-.206.394-.554v-1.84a.391.391 0 0 0-.397-.393h-.057v-.13c.165 0 .336.017.502.017.13 0 .257-.018.388-.018z"/><path d="M17.195 26.457l-.179-.006-2.214-2.47v1.75c.005.38.062.488.391.492h.093v.169h-.02c-.188 0-.375-.018-.562-.018-.195 0-.396.018-.593.018h-.02v-.17h.081c.288 0 .37-.186.374-.535v-1.84a.372.372 0 0 0-.378-.373h-.076v-.169h.02c.166 0 .337.017.501.017.128 0 .255-.017.401-.011l1.918 2.162v-1.607c-.001-.347-.234-.39-.36-.392h-.116v-.169h.02c.206 0 .407.017.61.017.178 0 .357-.017.537-.017h.019v.17h-.084c-.18.004-.366.02-.37.535v1.987c0 .153.004.305.026.439l.002.021h-.02zm-.165-.038h.143a2.979 2.979 0 0 1-.023-.422V24.01c0-.524.221-.573.408-.574h.046v-.093c-.172.002-.344.017-.517.017-.2 0-.395-.015-.593-.017v.093h.078c.134.001.398.06.398.43l-.006 1.651-.008.009-.014.014-1.94-2.197c-.13 0-.257.017-.389.017-.162 0-.324-.015-.483-.017v.093h.038a.411.411 0 0 1 .416.412v1.839c0 .35-.1.574-.412.575h-.042v.092c.188-.001.383-.017.574-.017.183 0 .364.016.545.017v-.092h-.056c-.343 0-.428-.15-.43-.531v-1.848zm-.088-.907l.015-.012zm-.01-.008v-.002l-.003-.003zm1.393.245c-.044.148-.096.262-.096.34 0 .131.183.153.327.153h.049v.131a9.919 9.919 0 0 0-.53-.017c-.156 0-.313.008-.47.017v-.131h.027c.17 0 .314-.1.378-.284l.698-2.004a3.58 3.58 0 0 0 .163-.543 2.17 2.17 0 0 0 .396-.187c.014-.005.022-.01.035-.01s.021 0 .03.015c.014.034.026.073.04.108l.803 2.285c.052.152.104.314.16.446.053.122.145.174.29.174h.025v.131a12.414 12.414 0 0 0-1.256 0v-.131h.048c.1 0 .27-.017.27-.127a1.42 1.42 0 0 0-.087-.314l-.17-.507h-.99zm.637-1.935h-.009l-.405 1.236h.815l-.4-1.236z"/><path d="M20.649 26.392a12.879 12.879 0 0 0-.6-.018c-.214 0-.432.01-.655.018h-.02v-.17h.068c.1 0 .25-.023.25-.107.002-.05-.037-.17-.085-.308l-.166-.494h-.963l-.135.441c-.044.149-.097.264-.097.335.002.107.165.133.31.133h.067v.17h-.02a10.345 10.345 0 0 0-.527-.018c-.156 0-.314.01-.47.018h-.02v-.17h.045c.162 0 .298-.093.36-.27l.7-2.005c.056-.162.135-.38.173-.554a2.2 2.2 0 0 0 .396-.187c.012-.004.024-.01.042-.01.01 0 .034.002.048.025.012.036.026.075.04.11l.803 2.285c.051.153.103.314.16.443.05.117.13.163.271.163h.044v.17h-.02zm-1.236-.04c.215-.007.427-.015.636-.015.202 0 .392.008.582.016v-.092h-.007c-.15.001-.252-.057-.306-.186-.056-.132-.11-.294-.161-.447l-.803-2.285-.037-.105c-.005-.004-.003-.004-.007-.004h-.008c-.009 0-.014.003-.026.005a1.571 1.571 0 0 1-.388.175c-.027.166-.105.384-.162.546l-.698 2.004a.416.416 0 0 1-.397.297h-.007v.092c.15-.008.3-.016.452-.016.169 0 .34.008.508.016v-.092h-.028c-.143-.002-.341-.017-.346-.172 0-.086.054-.198.096-.346l.019.006-.019-.006.144-.467h1.017l.175.518c.049.141.089.258.089.321-.007.134-.19.144-.29.146h-.028v.092zm-.892-1.283l.417-1.275h.024v.02h-.005.005v-.02h.013l.415 1.275h-.87zm.052-.039h.764l-.38-1.17zm.37-1.21l.01-.004-.01.003zm1.899-.277c-.327 0-.34.079-.406.397h-.131c.017-.122.04-.244.053-.371.017-.123.025-.245.025-.371h.106c.034.131.143.126.26.126h2.252c.117 0 .226-.004.235-.135l.104.018c-.016.117-.033.235-.047.354-.01.117-.01.235-.01.353l-.13.048c-.007-.16-.03-.42-.322-.42h-.716v2.324c0 .337.153.376.362.376h.084v.131c-.17 0-.476-.017-.712-.017-.26 0-.567.017-.737.017v-.131h.083c.24 0 .362-.022.362-.367v-2.332z"/><path d="M22.56 26.392c-.17 0-.477-.018-.711-.018-.26 0-.566.018-.737.018h-.02v-.17h.103c.24-.005.337-.008.343-.347v-2.314h-.696v-.038h.734v2.352c0 .351-.142.386-.381.387h-.064v.092c.172-.001.465-.017.718-.017.228 0 .52.016.692.017v-.092h-.064c-.21-.001-.38-.052-.38-.396v-2.343h.734c.293.001.33.25.34.413l.094-.035c0-.114 0-.228.01-.343.011-.112.028-.224.044-.335l-.066-.012c-.02.127-.143.134-.252.132h-2.273c-.103.002-.215-.005-.254-.127h-.072a2.56 2.56 0 0 1-.026.355c-.012.12-.033.236-.05.351h.094c.057-.305.095-.404.422-.399v.038c-.324.006-.316.06-.388.384l-.003.014h-.168l.002-.021c.019-.123.04-.246.053-.371.018-.123.026-.244.026-.369v-.02h.138l.004.014c.03.11.11.111.222.113H23c.12-.002.209-.003.217-.117v-.021l.02.004.125.02-.003.019a8.859 8.859 0 0 0-.048.351c-.01.117-.01.235-.01.353v.013l-.012.005-.154.057v-.026c-.012-.164-.03-.402-.305-.402h-.697v2.305c.005.33.135.353.343.357h.102v.169zm.942-.15h.061c.157 0 .322-.022.322-.25v-2.287c0-.228-.165-.25-.322-.25h-.061v-.13c.17 0 .431.017.645.017.219 0 .48-.018.686-.018v.131h-.061c-.158 0-.324.022-.324.25v2.288c0 .227.166.249.324.249h.06v.131c-.209 0-.47-.017-.689-.017-.214 0-.47.017-.641.017z"/><path d="M24.833 26.392c-.21 0-.472-.018-.69-.018-.213 0-.47.018-.64.018h-.02v-.17h.08c.158-.002.303-.016.303-.229v-2.288c0-.213-.145-.228-.303-.23h-.08v-.17h.02c.17 0 .432.017.644.017.218 0 .48-.017.686-.017h.018v.17h-.08c-.159.002-.302.016-.304.23v2.288c.002.213.145.227.305.23h.08v.169zm-.02-.038v-.092h-.041c-.156 0-.342-.028-.342-.269v-2.288c0-.242.186-.269.342-.269h.041v-.093c-.2.002-.453.017-.666.017-.207 0-.457-.015-.626-.017v.093h.042c.155 0 .341.027.342.269v2.288c0 .241-.187.269-.342.269h-.042v.092c.168-.002.415-.017.623-.017.211 0 .464.016.67.017zm1.76-3.095c.93 0 1.67.577 1.67 1.507 0 1.005-.72 1.673-1.648 1.673-.925 0-1.632-.63-1.632-1.569 0-.908.703-1.611 1.61-1.611zm.066 2.987c.846 0 .994-.747.994-1.384 0-.638-.344-1.41-1.069-1.41-.763 0-.99.68-.99 1.265 0 .782.358 1.53 1.065 1.53z"/><path d="M24.944 24.87a1.61 1.61 0 0 1 1.629-1.63v.038a1.57 1.57 0 0 0-1.592 1.592c.002.929.698 1.549 1.615 1.549.919 0 1.629-.659 1.63-1.653-.001-.92-.73-1.487-1.653-1.488v-.038c.936 0 1.688.584 1.69 1.526-.001 1.015-.73 1.69-1.667 1.691-.933-.002-1.65-.637-1.652-1.587zm.611-.153c.002-.587.23-1.285 1.01-1.285.74.001 1.086.788 1.087 1.43-.001.637-.151 1.402-1.013 1.402v-.037c.83 0 .974-.728.975-1.365 0-.633-.34-1.39-1.05-1.392-.748 0-.97.666-.971 1.247 0 .778.355 1.51 1.046 1.51v.037c-.724 0-1.082-.76-1.084-1.547zm5.628.795l.01-.008v-1.638c0-.358-.25-.41-.38-.41h-.096v-.132c.205 0 .406.018.61.018.18 0 .358-.018.537-.018v.131H31.8c-.183 0-.389.035-.389.555v1.987c0 .153.005.306.027.442h-.166l-2.247-2.508v1.8c0 .38.074.51.41.51h.074v.132c-.188 0-.375-.017-.562-.017-.197 0-.398.017-.594.017v-.131h.061c.302 0 .393-.206.393-.554v-1.84a.39.39 0 0 0-.398-.393h-.056v-.13c.166 0 .336.017.502.017.13 0 .256-.018.388-.018l1.941 2.188z"/><path d="M31.437 26.457l-.18-.006-2.215-2.47v1.75c.005.38.063.487.39.491h.095v.17h-.019c-.189 0-.376-.018-.563-.018-.195 0-.396.018-.594.018h-.017v-.17h.079c.287 0 .37-.186.374-.534v-1.84a.372.372 0 0 0-.378-.374h-.075v-.169h.017c.168 0 .338.017.503.017.129 0 .254-.017.402-.01l1.917 2.16v-1.606c-.001-.347-.234-.389-.361-.392h-.115v-.169h.02c.205 0 .406.017.61.017.178 0 .356-.017.537-.017h.019v.17h-.085c-.18.004-.365.02-.369.535v1.987c0 .153.004.306.025.439l.004.021zm-.166-.038h.143a3.095 3.095 0 0 1-.023-.422V24.01c0-.525.22-.573.408-.574h.047v-.093c-.173.001-.345.017-.52.017-.198 0-.393-.016-.59-.017v.093h.076c.135.001.398.06.398.43l-.004 1.651-.009.009-.014.014-1.941-2.197c-.13 0-.256.017-.388.017-.161 0-.325-.016-.484-.017v.093h.039a.412.412 0 0 1 .416.412v1.84c0 .35-.098.573-.412.574h-.043v.092c.19-.001.384-.017.576-.017.182 0 .362.016.543.017v-.092h-.056c-.342 0-.428-.15-.428-.531v-1.849zm-.088-.907l.014-.012zm-.01-.008v-.002l-.003-.003zm1.392.245c-.042.148-.095.262-.095.34 0 .131.184.153.327.153h.048v.131a7.84 7.84 0 0 0-.999 0v-.131h.025c.171 0 .316-.1.38-.284l.7-2.004c.056-.162.135-.38.16-.543.14-.047.314-.134.398-.187.012-.005.02-.01.034-.01.013 0 .021 0 .03.015.014.034.026.073.04.108l.802 2.285c.052.152.105.314.162.446.052.122.144.174.288.174h.027v.131a12.416 12.416 0 0 0-1.258 0v-.131h.049c.1 0 .27-.017.27-.127a1.4 1.4 0 0 0-.087-.314l-.17-.507h-.99l-.14.455zm.638-1.935h-.009l-.406 1.236h.817z"/><path d="M34.89 26.392c-.197-.008-.393-.018-.601-.018-.213 0-.431.01-.654.018h-.019v-.17h.066c.102 0 .252-.023.252-.107a1.355 1.355 0 0 0-.087-.308l-.166-.494h-.963l-.134.441c-.044.15-.096.264-.095.335 0 .107.163.134.307.134h.067v.17l-.02-.001c-.174-.008-.352-.018-.526-.018-.157 0-.313.01-.47.018h-.02v-.17h.044c.163 0 .3-.093.363-.27l.698-2.005c.056-.162.134-.379.173-.553a2.38 2.38 0 0 0 .397-.188c.011-.004.023-.01.041-.01a.05.05 0 0 1 .048.026l.04.11.802 2.284c.053.153.105.314.161.444.052.116.13.162.27.163h.045v.17l-.02-.001zm-1.237-.039c.216-.008.428-.016.636-.016.203 0 .392.008.583.016v-.091h-.008c-.148 0-.25-.058-.305-.187-.057-.132-.11-.294-.162-.447l-.802-2.285a4.189 4.189 0 0 1-.037-.104c-.004-.005-.004-.005-.006-.005h-.009c-.01 0-.014.003-.024.006-.086.053-.26.141-.39.174-.026.166-.105.384-.162.546l-.698 2.004a.417.417 0 0 1-.398.298h-.006v.09c.15-.007.3-.015.452-.015.169 0 .341.008.509.016v-.091h-.03c-.141-.003-.34-.018-.346-.173.001-.086.055-.198.098-.346l.017.006-.017-.006.143-.467h1.017l.175.519c.048.14.088.256.088.32-.006.134-.19.144-.289.147h-.03v.091zm-.891-1.285l.419-1.274h.022v.02l-.005.001.005-.001v-.02h.013l.413 1.274zm.052-.038h.763l-.38-1.17zm.371-1.21l.009-.004-.009.003zm2.805 2.125c0 .175.121.227.261.245.179.013.375.013.577-.01a.621.621 0 0 0 .418-.235c.07-.096.108-.219.135-.314h.126c-.048.248-.109.493-.161.742-.383 0-.768-.017-1.151-.017-.385 0-.768.017-1.152.017v-.131h.06c.158 0 .328-.022.328-.293v-2.244c0-.228-.17-.25-.328-.25h-.06v-.13c.23 0 .458.017.689.017.223 0 .44-.018.663-.018v.131h-.11c-.165 0-.295.005-.295.237z"/><path d="M37.347 26.392c-.385 0-.77-.018-1.152-.018-.384 0-.767.018-1.152.018h-.019v-.17h.08c.158-.003.307-.014.31-.273v-2.245c-.003-.213-.152-.227-.31-.23h-.08v-.169h.019c.232 0 .46.017.69.017.221 0 .439-.017.663-.017h.018v.17h-.128c-.169.004-.274-.004-.278.216v2.254c.002.163.108.207.245.226a3.528 3.528 0 0 0 .572-.009.61.61 0 0 0 .406-.228.983.983 0 0 0 .132-.308l.003-.014h.165l-.004.023c-.05.25-.11.493-.162.742l-.004.015zm-.016-.038c.05-.237.107-.47.155-.705h-.09a.988.988 0 0 1-.134.307.648.648 0 0 1-.433.244 3.337 3.337 0 0 1-.58.008c-.142-.015-.279-.076-.279-.263V23.69c0-.242.154-.255.317-.255h.09v-.093c-.215.001-.428.018-.645.018-.225 0-.446-.017-.67-.018v.093h.042c.156 0 .346.027.346.268v2.245c0 .283-.19.312-.346.312h-.041v.093c.376 0 .754-.017 1.132-.017.38 0 .758.016 1.136.017z"/></g><path d="M10.207 7.905c0-4.085 3.308-7.397 7.389-7.397 4.08 0 7.388 3.312 7.388 7.397s-3.308 7.397-7.388 7.397-7.389-3.312-7.389-7.397z" fill="#fffffe"/><path d="M22.064 7.76a4.45 4.45 0 0 0-2.852-4.15v8.299a4.45 4.45 0 0 0 2.852-4.15zm-6.03 4.147V3.611a4.454 4.454 0 0 0-2.851 4.148 4.452 4.452 0 0 0 2.85 4.148zM17.623.745a7.01 7.01 0 0 0-7.005 7.014 7.009 7.009 0 0 0 7.004 7.013A7.01 7.01 0 0 0 24.63 7.76 7.012 7.012 0 0 0 17.623.745zm-.018 14.689c-4.234.02-7.719-3.414-7.719-7.595 0-4.569 3.485-7.729 7.72-7.728h1.983c4.184 0 8.003 3.158 8.003 7.728 0 4.18-3.819 7.595-8.003 7.595z" fill="#0069aa"/><path d="M.019 26.242H.08c.157 0 .323-.022.323-.25v-2.287c0-.228-.166-.25-.323-.25H.02v-.13c.17 0 .432.017.646.017.218 0 .48-.018.685-.018v.131h-.062c-.156 0-.322.022-.322.25v2.288c0 .227.166.249.322.249h.062v.131c-.21 0-.472-.017-.69-.017-.213 0-.47.017-.641.017v-.131z" fill="#1a1919"/><path d="M1.35 26.392c-.211 0-.473-.018-.69-.018-.213 0-.47.018-.641.018H0v-.17h.08c.158-.003.302-.016.304-.229v-2.288c-.002-.214-.146-.228-.304-.23H0v-.17h.019c.171 0 .433.017.646.017.217 0 .478-.017.685-.017h.02v.17h-.081c-.159.002-.304.016-.304.23v2.288c0 .213.145.226.304.23h.08v.169h-.02zm-.02-.038v-.093h-.04c-.156 0-.342-.027-.343-.268v-2.288c.001-.242.187-.269.343-.269h.042v-.093c-.202 0-.454.018-.666.018-.207 0-.458-.017-.627-.018v.093H.08c.155 0 .341.027.341.269v2.288c0 .241-.186.268-.341.268H.038v.093c.17-.001.415-.017.622-.017.213 0 .465.016.67.017zM37.456 23.2c.263 0 .46.203.46.461a.45.45 0 0 1-.46.459.45.45 0 0 1-.46-.459c0-.258.197-.46.46-.46zm0 .835a.37.37 0 0 0 .363-.374.37.37 0 0 0-.363-.374.371.371 0 0 0-.364.374.37.37 0 0 0 .364.373zm-.229-.131v-.022c.056-.009.067-.007.067-.041V23.5c0-.048-.005-.065-.065-.062v-.024h.235c.081 0 .156.039.156.123 0 .068-.045.119-.11.138l.077.106a.486.486 0 0 0 .1.108v.015h-.089c-.043 0-.08-.09-.165-.212h-.05v.153c0 .03.01.029.066.037v.022zm.155-.243h.054c.06 0 .087-.044.087-.117s-.042-.1-.09-.1h-.05v.217z" fill="#1a1919"/></g></svg>