<svg fill="none" height="41" width="60" xmlns="http://www.w3.org/2000/svg"><path d="M59 28.111l-35 11h33a2 2 0 0 0 2-2z" fill="#fd6020"/><g clip-rule="evenodd" fill-rule="evenodd"><path d="M52.032 15.301c1.863 0 2.888.83 2.888 2.395a2.24 2.24 0 0 1-1.863 2.394l2.514 3.408h-1.955l-2.142-3.315h-.187v3.315h-1.583v-8.197zm-.745 3.776h.466c1.024 0 1.49-.46 1.49-1.29 0-.736-.466-1.196-1.49-1.196h-.466zm-7.078 4.421h4.47v-1.381h-2.887v-2.21h2.794v-1.382h-2.794v-1.842h2.888V15.3h-4.47v8.197zm-4.657-2.67L37.41 15.3h-1.676l3.446 8.382h.838l3.446-8.382h-1.676l-2.235 5.526zm-18.906-1.382c0 2.302 1.863 4.236 4.191 4.236.745 0 1.397-.184 2.05-.46V21.38c-.466.553-1.118.921-1.863.921-1.49 0-2.701-1.105-2.701-2.579v-.184c-.093-1.474 1.117-2.763 2.607-2.855.746 0 1.49.368 1.956.92v-1.841c-.558-.369-1.303-.46-1.956-.46-2.42-.185-4.284 1.75-4.284 4.144zm-2.887-1.013c-.931-.369-1.21-.553-1.21-1.014.093-.552.558-1.013 1.117-.92.466 0 .931.276 1.304.644l.838-1.105c-.652-.553-1.49-.921-2.328-.921-1.304-.092-2.422.921-2.515 2.21v.092c0 1.106.466 1.75 1.956 2.211.373.092.745.276 1.118.46.28.185.465.461.465.83 0 .644-.559 1.197-1.117 1.197h-.093a1.84 1.84 0 0 1-1.677-1.105l-1.024 1.013c.559 1.013 1.676 1.565 2.794 1.565 1.49.093 2.7-1.013 2.794-2.486v-.277c-.093-1.105-.56-1.658-2.422-2.394zm-5.402 5.065h1.584v-8.197h-1.584zM5 15.301h2.794c2.235.092 4.005 1.934 3.912 4.145 0 1.197-.56 2.302-1.49 3.131-.839.645-1.863 1.013-2.888.921H5zm2.049 6.816c.745.092 1.583-.184 2.142-.645.559-.553.838-1.29.838-2.118 0-.737-.28-1.474-.838-2.027-.559-.46-1.397-.736-2.142-.644h-.466v5.434z" fill="#000"/><path d="M31.636 15.111c-2.328 0-4.284 1.842-4.284 4.237 0 2.303 1.863 4.237 4.284 4.329 2.422.092 4.284-1.842 4.378-4.237-.094-2.395-1.956-4.329-4.378-4.329z" fill="#fd6020"/></g></svg>