<svg fill="none" height="29" width="37" xmlns="http://www.w3.org/2000/svg" xmlns:xlink="http://www.w3.org/1999/xlink"><linearGradient id="a"><stop offset="0" stop-color="#007940"/><stop offset=".23" stop-color="#00873f"/><stop offset=".74" stop-color="#40a737"/><stop offset="1" stop-color="#5cb531"/></linearGradient><linearGradient id="c" gradientUnits="userSpaceOnUse" x1="24.923" x2="35.087" xlink:href="#a" y1="16.16" y2="16.16"/><linearGradient id="d" gradientUnits="userSpaceOnUse" x1="-121051" x2="-120338" xlink:href="#a" y1="-2079010" y2="-2079010"/><linearGradient id="e" gradientUnits="userSpaceOnUse" x1="-10974.9" x2="-10748.7" xlink:href="#a" y1="-12237.9" y2="-12237.9"/><linearGradient id="f" gradientUnits="userSpaceOnUse" x1="2.068" x2="12.324" y1="14.547" y2="14.547"><stop offset="0" stop-color="#1f286f"/><stop offset=".48" stop-color="#004e94"/><stop offset=".83" stop-color="#0066b1"/><stop offset="1" stop-color="#006fbc"/></linearGradient><linearGradient id="g" gradientUnits="userSpaceOnUse" x1="13.364" x2="23.417" y1="14.08" y2="14.08"><stop offset="0" stop-color="#6c2c2f"/><stop offset=".17" stop-color="#882730"/><stop offset=".57" stop-color="#be1833"/><stop offset=".86" stop-color="#dc0436"/><stop offset="1" stop-color="#e60039"/></linearGradient><clipPath id="b"><path d="M0 0h37v28.645H0z" transform="translate(0 .111)"/></clipPath><g clip-path="url(#b)"><path d="M37 22.983a5.798 5.798 0 0 1-1.686 4.082 5.737 5.737 0 0 1-4.062 1.693H0V5.886a5.8 5.8 0 0 1 1.685-4.08A5.739 5.739 0 0 1 5.745.11H37v22.872z" fill="#fff"/><path d="M26.824 17.123h2.374c.068 0 .226-.023.29-.023a1.067 1.067 0 0 0 .837-1.068 1.108 1.108 0 0 0-.838-1.07 1.245 1.245 0 0 0-.289-.021h-2.374z" fill="url(#c)"/><path d="M28.927 2.043a4.107 4.107 0 0 0-2.91 1.213A4.15 4.15 0 0 0 24.81 6.18v4.298h5.813c.136-.004.272.003.406.022 1.313.068 2.286.75 2.286 1.932 0 .933-.657 1.729-1.88 1.889v.045c1.335.091 2.352.841 2.352 2 0 1.251-1.13 2.07-2.623 2.07h-6.377v8.412h6.039a4.106 4.106 0 0 0 2.91-1.212 4.15 4.15 0 0 0 1.206-2.926V2.043z" fill="url(#d)"/><path d="M30.035 12.706a.97.97 0 0 0-.837-.978c-.046 0-.159-.021-.227-.021h-2.147v2h2.147a.62.62 0 0 0 .227-.023.961.961 0 0 0 .837-.978z" fill="url(#e)"/><path d="M6.175 2.043a4.107 4.107 0 0 0-2.912 1.212 4.15 4.15 0 0 0-1.206 2.926v10.215c1.156.569 2.353.933 3.551.933 1.425 0 2.194-.871 2.194-2.047v-4.82h3.53v4.796c0 1.864-1.157 3.386-5.066 3.386a17.27 17.27 0 0 1-4.23-.523v8.709h6.04a4.096 4.096 0 0 0 2.91-1.214 4.14 4.14 0 0 0 1.204-2.928V2.043z" fill="url(#f)"/><path d="M17.55 2.043a4.107 4.107 0 0 0-2.91 1.213 4.15 4.15 0 0 0-1.206 2.925v5.41c1.04-.885 2.85-1.452 5.767-1.317 1.09.07 2.173.237 3.235.5v1.743a7.812 7.812 0 0 0-3.12-.91c-2.218-.157-3.552.934-3.552 2.843 0 1.932 1.334 3.023 3.551 2.841a8.18 8.18 0 0 0 3.12-.894v1.743c-1.06.265-2.143.433-3.234.5-2.917.136-4.726-.436-5.767-1.318v9.548h6.039a4.1 4.1 0 0 0 2.912-1.21 4.14 4.14 0 0 0 1.207-2.927V2.043z" fill="url(#g)"/></g></svg>