<svg width="31" height="25" fill="none" xmlns="http://www.w3.org/2000/svg"><g clip-path="url(#clip0_1017_301)"><path d="M19.691 17.154h-8.382V2.151h8.382v15.003z" fill="#6C6BBD"/><path d="M11.84 9.652a9.512 9.512 0 0 1 3.66-7.501A9.563 9.563 0 0 0 9.58.11C4.288.11 0 4.383 0 9.652c0 5.27 4.289 9.542 9.58 9.542a9.563 9.563 0 0 0 5.92-2.04 9.512 9.512 0 0 1-3.66-7.502z" fill="#D32011"/><path d="M31 9.652c0 5.27-4.289 9.542-9.58 9.542a9.566 9.566 0 0 1-5.92-2.04 9.51 9.51 0 0 0 3.659-7.502 9.51 9.51 0 0 0-3.66-7.501A9.566 9.566 0 0 1 21.421.11C26.71.11 31 4.383 31 9.652z" fill="#0099DF"/><path d="M22.527 21.393c.112 0 .272.021.395.07l-.171.518a.9.9 0 0 0-.346-.063c-.362 0-.543.233-.543.651v1.421h-.553v-2.533h.548v.307a.752.752 0 0 1 .67-.371zm-2.045.567h-.904v1.145c0 .254.09.424.367.424.144 0 .325-.048.489-.143l.16.471a1.302 1.302 0 0 1-.692.197c-.655 0-.883-.35-.883-.939V21.96h-.516v-.503h.516v-.769h.559v.769h.904v.503zm-7.083.54c.059-.365.282-.614.676-.614.356 0 .585.222.644.615h-1.32zm1.895.223c-.006-.79-.495-1.33-1.209-1.33-.745 0-1.266.54-1.266 1.33 0 .805.543 1.33 1.304 1.33.383 0 .734-.095 1.043-.355l-.272-.408a1.21 1.21 0 0 1-.74.265c-.355 0-.68-.164-.76-.62h1.889c.005-.07.01-.138.01-.212zm2.431-.62a1.637 1.637 0 0 0-.792-.217c-.303 0-.484.111-.484.297 0 .17.19.217.43.249l.261.037c.554.08.889.313.889.758 0 .482-.426.827-1.16.827-.416 0-.799-.106-1.102-.33l.26-.429c.187.144.464.265.847.265.378 0 .58-.11.58-.307 0-.143-.143-.223-.447-.265l-.26-.037c-.57-.08-.879-.334-.879-.747 0-.503.416-.811 1.06-.811.404 0 .771.09 1.037.265l-.24.445zm6.825-.186a.847.847 0 0 0-.317.059.765.765 0 0 0-.422.425.88.88 0 0 0-.06.33c0 .122.02.231.06.331a.762.762 0 0 0 .422.425c.098.04.203.06.317.06.114 0 .22-.02.318-.06a.76.76 0 0 0 .424-.424c.041-.1.061-.21.061-.331a.88.88 0 0 0-.06-.33.771.771 0 0 0-.743-.485zm0-.524c.198 0 .38.034.549.103a1.29 1.29 0 0 1 .724.705c.07.163.104.34.104.53 0 .192-.035.37-.104.532a1.292 1.292 0 0 1-.724.706 1.45 1.45 0 0 1-.549.102 1.45 1.45 0 0 1-.548-.102 1.306 1.306 0 0 1-.721-.706 1.344 1.344 0 0 1-.104-.531 1.304 1.304 0 0 1 .825-1.236c.168-.069.35-.103.548-.103zm-14.384 1.33c0-.445.293-.81.771-.81.458 0 .767.35.767.81 0 .461-.309.81-.767.81-.478 0-.771-.364-.771-.81zm2.06 0v-1.266h-.554v.307c-.176-.228-.442-.371-.803-.371-.714 0-1.272.556-1.272 1.33s.558 1.33 1.272 1.33c.361 0 .627-.142.803-.37v.307h.553v-1.267zm-3.12 1.267V22.4c0-.599-.383-1.002-1-1.007-.325-.005-.66.095-.894.45-.176-.28-.453-.45-.841-.45-.271 0-.538.08-.745.376v-.312h-.553v2.533h.558v-1.404c0-.44.245-.674.623-.674.367 0 .553.239.553.668v1.41h.559v-1.404c0-.44.256-.674.622-.674.379 0 .56.239.56.668v1.41h.558z" fill="#110F0D"/></g><defs><clipPath id="clip0_1017_301"><path fill="#fff" transform="translate(0 .111)" d="M0 0h31v24H0z"/></clipPath></defs></svg>