<svg fill="none" height="14" width="43" xmlns="http://www.w3.org/2000/svg"><path clip-rule="evenodd" d="M10.75 13.728H7.03L4.237 3.08c-.132-.49-.413-.922-.827-1.126A12.114 12.114 0 0 0 0 .828v-.41h5.995c.827 0 1.448.616 1.551 1.33l1.448 7.68 3.72-9.01h3.618zm7.65 0h-3.514L17.78.418h3.514zm7.441-9.623c.104-.717.724-1.127 1.448-1.127 1.138-.102 2.377.103 3.411.614l.62-2.865A8.897 8.897 0 0 0 28.117.11c-3.41 0-5.893 1.844-5.893 4.402 0 1.947 1.758 2.969 3 3.585 1.342.613 1.86 1.023 1.756 1.637 0 .921-1.034 1.331-2.067 1.331-1.24 0-2.482-.307-3.618-.82l-.62 2.868c1.24.51 2.583.717 3.825.717 3.824.1 6.201-1.741 6.201-4.506 0-3.48-4.859-3.685-4.859-5.22zm17.16 9.623L40.21.418h-2.998c-.62 0-1.24.41-1.448 1.024l-5.167 12.286h3.618l.722-1.945h4.445l.414 1.945H43zm-5.272-9.726l1.032 5.016h-2.894z" fill="#172b85" fill-rule="evenodd"/></svg>